<svg xmlns="http://www.w3.org/2000/svg" viewBox="0 0 900 1200" role="img" aria-labelledby="title desc">
  <title id="title">Charcoal jogger pants mockup</title>
  <desc id="desc">Dummy catalog product image for the All-Day Jogger.</desc>
  <defs>
    <linearGradient id="bg" x1="0" x2="1" y1="0" y2="1">
      <stop offset="0" stop-color="#ebe8df"/>
      <stop offset="1" stop-color="#beb7a9"/>
    </linearGradient>
    <linearGradient id="pants" x1="0" x2="1" y1="0" y2="1">
      <stop offset="0" stop-color="#3c3c38"/>
      <stop offset="1" stop-color="#171715"/>
    </linearGradient>
    <filter id="shadow" x="-20%" y="-20%" width="140%" height="140%">
      <feDropShadow dx="0" dy="28" stdDeviation="24" flood-color="#000000" flood-opacity=".18"/>
    </filter>
  </defs>
  <rect width="900" height="1200" fill="url(#bg)"/>
  <circle cx="760" cy="980" r="210" fill="#c8f040" opacity=".24"/>
  <g filter="url(#shadow)">
    <path d="M318 246h264l18 112-37 616c-2 35-31 62-66 62h-64l-26-472-35 472h-64c-35 0-64-27-66-62l-37-616 18-112z" fill="url(#pants)"/>
    <path d="M323 246h254c22 0 40 18 40 40v48H283v-48c0-22 18-40 40-40z" fill="#20201e"/>
    <path d="M376 294h148" stroke="#c8f040" stroke-width="13" stroke-linecap="round"/>
    <path d="M450 345v676" stroke="#ffffff" stroke-width="9" opacity=".08"/>
    <path d="M317 423h94" stroke="#ffffff" stroke-width="12" opacity=".08"/>
    <path d="M489 423h94" stroke="#ffffff" stroke-width="12" opacity=".08"/>
  </g>
</svg>
