<svg xmlns="http://www.w3.org/2000/svg" viewBox="0 0 900 1200" role="img" aria-labelledby="title desc">
  <title id="title">Cream polo shirt mockup</title>
  <desc id="desc">Dummy catalog product image for the Cloud Polo.</desc>
  <defs>
    <linearGradient id="bg" x1="0" x2="1" y1="0" y2="1">
      <stop offset="0" stop-color="#f8f6f0"/>
      <stop offset="1" stop-color="#d8c9b2"/>
    </linearGradient>
    <linearGradient id="cloth" x1="0" x2="1" y1="0" y2="1">
      <stop offset="0" stop-color="#fffdf7"/>
      <stop offset="1" stop-color="#d5c6ad"/>
    </linearGradient>
    <filter id="shadow" x="-20%" y="-20%" width="140%" height="140%">
      <feDropShadow dx="0" dy="30" stdDeviation="28" flood-color="#000000" flood-opacity=".16"/>
    </filter>
  </defs>
  <rect width="900" height="1200" fill="url(#bg)"/>
  <rect x="92" y="126" width="716" height="948" rx="38" fill="#ffffff" opacity=".22"/>
  <g filter="url(#shadow)">
    <path d="M306 310c60-38 94-52 144-52s84 14 144 52l125 84-78 142-68-43v423c0 36-30 66-66 66H393c-36 0-66-30-66-66V493l-68 43-78-142 125-84z" fill="url(#cloth)"/>
    <path d="M391 278l59 98 59-98 52 38-68 113h-86l-68-113 52-38z" fill="#ece2d2"/>
    <path d="M437 386h26v158h-26z" fill="#cbb99d"/>
    <circle cx="450" cy="456" r="8" fill="#8b7355"/>
    <circle cx="450" cy="506" r="8" fill="#8b7355"/>
    <path d="M336 618h228" stroke="#ffffff" stroke-width="14" stroke-linecap="round" opacity=".28"/>
  </g>
</svg>
