<svg xmlns="http://www.w3.org/2000/svg" viewBox="0 0 900 1200" role="img" aria-labelledby="title desc">
  <title id="title">Olive cargo pant mockup</title>
  <desc id="desc">Dummy catalog product image for the Fly Cargo Pant.</desc>
  <defs>
    <linearGradient id="bg" x1="0" x2="1" y1="0" y2="1">
      <stop offset="0" stop-color="#ede9e2"/>
      <stop offset="1" stop-color="#bfc4a5"/>
    </linearGradient>
    <linearGradient id="pants" x1="0" x2="1" y1="0" y2="1">
      <stop offset="0" stop-color="#6a704b"/>
      <stop offset="1" stop-color="#343a25"/>
    </linearGradient>
    <filter id="shadow" x="-20%" y="-20%" width="140%" height="140%">
      <feDropShadow dx="0" dy="28" stdDeviation="24" flood-color="#000000" flood-opacity=".18"/>
    </filter>
  </defs>
  <rect width="900" height="1200" fill="url(#bg)"/>
  <path d="M140 159h620v870H140z" fill="#ffffff" opacity=".16"/>
  <g filter="url(#shadow)">
    <path d="M317 246h266l20 112-41 616c-3 35-32 62-67 62h-61l-25-463-37 463h-61c-35 0-64-27-67-62l-41-616 20-112z" fill="url(#pants)"/>
    <rect x="281" y="246" width="338" height="92" rx="40" fill="#3d452d"/>
    <path d="M375 294h150" stroke="#c8f040" stroke-width="13" stroke-linecap="round"/>
    <rect x="258" y="488" width="134" height="132" rx="14" fill="#202617" opacity=".38"/>
    <rect x="508" y="488" width="134" height="132" rx="14" fill="#202617" opacity=".38"/>
    <path d="M278 523h94M528 523h94" stroke="#ffffff" stroke-width="9" opacity=".13"/>
    <path d="M450 345v678" stroke="#ffffff" stroke-width="8" opacity=".1"/>
  </g>
</svg>
