<svg xmlns="http://www.w3.org/2000/svg" viewBox="0 0 900 1200" role="img" aria-labelledby="title desc">
  <title id="title">Black oversized t-shirt mockup</title>
  <desc id="desc">Dummy catalog product image for the Fly Essential Tee.</desc>
  <defs>
    <linearGradient id="bg" x1="0" x2="1" y1="0" y2="1">
      <stop offset="0" stop-color="#f6f1e8"/>
      <stop offset="1" stop-color="#d9d1c4"/>
    </linearGradient>
    <linearGradient id="shirt" x1="0" x2="1" y1="0" y2="1">
      <stop offset="0" stop-color="#242424"/>
      <stop offset="1" stop-color="#070707"/>
    </linearGradient>
    <filter id="shadow" x="-20%" y="-20%" width="140%" height="140%">
      <feDropShadow dx="0" dy="30" stdDeviation="28" flood-color="#000000" flood-opacity=".18"/>
    </filter>
  </defs>
  <rect width="900" height="1200" fill="url(#bg)"/>
  <circle cx="720" cy="180" r="130" fill="#c8f040" opacity=".55"/>
  <circle cx="130" cy="1040" r="180" fill="#0a0a0a" opacity=".05"/>
  <g filter="url(#shadow)">
    <path d="M306 303c55-35 92-50 144-50s89 15 144 50l139 103-96 150-68-43v396c0 37-29 67-66 67H397c-37 0-66-30-66-67V513l-68 43-96-150 139-103z" fill="url(#shirt)"/>
    <path d="M382 270c20 40 43 59 68 59s48-19 68-59" fill="none" stroke="#4b4b4b" stroke-width="24" stroke-linecap="round"/>
    <path d="M351 512h198v18H351z" fill="#ffffff" opacity=".06"/>
    <path d="M377 584h146v13H377z" fill="#c8f040" opacity=".8"/>
  </g>
</svg>
