<svg xmlns="http://www.w3.org/2000/svg" viewBox="0 0 900 1200" role="img" aria-labelledby="title desc">
  <title id="title">Light graphic t-shirt mockup</title>
  <desc id="desc">Dummy catalog product image for the Oversized Graphic Tee.</desc>
  <defs>
    <linearGradient id="bg" x1="0" x2="1" y1="0" y2="1">
      <stop offset="0" stop-color="#f5f3ef"/>
      <stop offset="1" stop-color="#d7d0c5"/>
    </linearGradient>
    <linearGradient id="shirt" x1="0" x2="1" y1="0" y2="1">
      <stop offset="0" stop-color="#fffaf0"/>
      <stop offset="1" stop-color="#dfd6c8"/>
    </linearGradient>
    <filter id="shadow" x="-20%" y="-20%" width="140%" height="140%">
      <feDropShadow dx="0" dy="30" stdDeviation="28" flood-color="#000000" flood-opacity=".16"/>
    </filter>
  </defs>
  <rect width="900" height="1200" fill="url(#bg)"/>
  <circle cx="185" cy="196" r="120" fill="#c4623a" opacity=".35"/>
  <circle cx="724" cy="1010" r="166" fill="#5a6040" opacity=".18"/>
  <g filter="url(#shadow)">
    <path d="M305 304c56-36 92-51 145-51s89 15 145 51l138 102-95 151-69-43v398c0 37-30 67-67 67H398c-37 0-67-30-67-67V514l-69 43-95-151 138-102z" fill="url(#shirt)"/>
    <path d="M381 270c20 39 44 58 69 58s49-19 69-58" fill="none" stroke="#c6bba9" stroke-width="24" stroke-linecap="round"/>
    <rect x="369" y="511" width="162" height="162" rx="30" fill="#0a0a0a"/>
    <path d="M405 610l42-61 48 83 27-36" fill="none" stroke="#c8f040" stroke-width="18" stroke-linecap="round" stroke-linejoin="round"/>
    <circle cx="508" cy="546" r="13" fill="#c4623a"/>
  </g>
</svg>
