<svg xmlns="http://www.w3.org/2000/svg" viewBox="0 0 900 1200" role="img" aria-labelledby="title desc">
  <title id="title">Slate zip hoodie mockup</title>
  <desc id="desc">Dummy catalog product image for the Zip-Up Hoodie.</desc>
  <defs>
    <linearGradient id="bg" x1="0" x2="1" y1="0" y2="1">
      <stop offset="0" stop-color="#ece8dd"/>
      <stop offset="1" stop-color="#aeb7c4"/>
    </linearGradient>
    <linearGradient id="hoodie" x1="0" x2="1" y1="0" y2="1">
      <stop offset="0" stop-color="#5c6a7d"/>
      <stop offset="1" stop-color="#252d39"/>
    </linearGradient>
    <filter id="shadow" x="-20%" y="-20%" width="140%" height="140%">
      <feDropShadow dx="0" dy="32" stdDeviation="30" flood-color="#000000" flood-opacity=".2"/>
    </filter>
  </defs>
  <rect width="900" height="1200" fill="url(#bg)"/>
  <circle cx="720" cy="205" r="130" fill="#0a0a0a" opacity=".08"/>
  <g filter="url(#shadow)">
    <path d="M304 350c56-46 85-68 146-68s90 22 146 68l130 102-92 140-58-39 32 379c4 48-34 89-82 89H374c-48 0-86-41-82-89l32-379-58 39-92-140 130-102z" fill="url(#hoodie)"/>
    <path d="M344 343c21-94 191-94 212 0 11 47-27 99-106 99s-117-52-106-99z" fill="#2e3846"/>
    <path d="M450 437v564" stroke="#dce3ea" stroke-width="12" opacity=".45"/>
    <path d="M390 692h50M460 692h50" stroke="#1c222c" stroke-width="64" stroke-linecap="round" opacity=".35"/>
    <path d="M424 459v136M476 459v136" stroke="#c8f040" stroke-width="8" stroke-linecap="round" opacity=".85"/>
  </g>
</svg>
